<svg width="174" height="48" viewBox="0 0 174 48" fill="none" xmlns="http://www.w3.org/2000/svg">
<path d="M0.640625 14.3555L0.347656 9.49219C0.347656 8.67188 0.328125 7.79297 0.289062 6.85547C0.132812 4.51172 0.289062 3.20312 0.757812 2.92969C1.1875 2.69531 1.48047 2.44141 1.63672 2.16797C1.83203 1.89453 2.02734 1.75781 2.22266 1.75781C2.45703 1.75781 2.78906 1.75781 3.21875 1.75781C3.6875 1.71875 4.17578 1.71875 4.68359 1.75781C5.89453 1.83594 6.69531 2.01172 7.08594 2.28516C7.51562 2.55859 7.98438 2.73437 8.49219 2.8125C9 2.89063 9.50781 2.94922 10.0156 2.98828C10.5625 2.98828 11.0703 2.98828 11.5391 2.98828C12.0078 2.94922 12.418 2.92969 12.7695 2.92969C13.1602 2.92969 13.4141 2.96875 13.5312 3.04688C14 3.24219 14.3906 3.32031 14.7031 3.28125C15.0547 3.24219 15.3867 3.39844 15.6992 3.75C16.0117 4.0625 16.2266 4.31641 16.3438 4.51172C16.4609 4.66797 16.832 4.78516 17.457 4.86328C18.1211 4.94141 18.668 5.01953 19.0977 5.09766C19.5273 5.13672 19.957 5.3125 20.3867 5.625C20.8164 5.9375 21.168 6.13281 21.4414 6.21094C21.7148 6.28906 22.0078 6.54297 22.3203 6.97266C22.6719 7.40234 22.9062 7.71484 23.0234 7.91016C23.1406 8.10547 23.2188 8.4375 23.2578 8.90625C23.2969 10 23.5703 10.8008 24.0781 11.3086C24.5859 11.8164 24.8594 12.3047 24.8984 12.7734C24.9766 13.2422 25.0352 13.7891 25.0742 14.4141C25.1133 15.0391 25.1719 15.8203 25.25 16.7578C25.3672 17.6562 25.1719 18.6719 24.6641 19.8047C24.1953 20.8984 23.707 21.6602 23.1992 22.0898C22.7305 22.5195 22.3398 23.0469 22.0273 23.6719C21.7148 24.2578 21.4805 24.9414 21.3242 25.7227C21.207 26.4648 20.7969 27.2266 20.0938 28.0078C19.6641 28.5547 19.3125 28.8867 19.0391 29.0039C18.8047 29.1211 18.5703 29.2578 18.3359 29.4141C18.1016 29.5312 17.8281 29.707 17.5156 29.9414C17.2031 30.1367 16.8516 30.3125 16.4609 30.4688C15.4844 30.9375 14.6445 31.0352 13.9414 30.7617C13.5117 30.957 13.082 31.0938 12.6523 31.1719C12.2617 31.2109 11.8516 31.2891 11.4219 31.4062C10.5234 31.7188 10.0156 32.2461 9.89844 32.9883C9.82031 33.7305 9.89844 34.4922 10.1328 35.2734C10.4062 36.0547 10.5625 36.7188 10.6016 37.2656C10.7969 39.0234 10.3672 40.5469 9.3125 41.8359C8.64844 42.6172 8.21875 43.457 8.02344 44.3555C7.82812 45.2148 7.47656 45.8008 6.96875 46.1133C6.10938 46.8945 5.28906 46.7188 4.50781 45.5859C4.39062 45.4688 4.13672 45.3125 3.74609 45.1172C3.19922 44.8047 2.84766 44.3164 2.69141 43.6523C2.57422 42.9492 2.51562 42.2461 2.51562 41.543C2.51562 40.8398 2.45703 40.1758 2.33984 39.5508C2.22266 38.9258 2.08594 38.2617 1.92969 37.5586C1.57812 35.6445 1.40234 34.3359 1.40234 33.6328C1.40234 32.9297 1.38281 32.207 1.34375 31.4648C1.34375 30.7227 1.44141 30.0586 1.63672 29.4727C1.87109 28.8867 1.96875 28.4961 1.92969 28.3008C1.89062 28.1055 1.92969 27.8906 2.04688 27.6562C2.16406 27.3828 2.30078 27.0703 2.45703 26.7188C2.61328 26.3281 2.73047 25.9375 2.80859 25.5469C2.96484 24.7266 2.73047 24.0234 2.10547 23.4375C1.40234 22.7734 1.05078 22.0703 1.05078 21.3281V20.9766C1.16797 19.6484 1.1875 18.75 1.10938 18.2812C0.796875 16.9531 0.640625 15.6445 0.640625 14.3555ZM10.0156 17.0508C10.0938 17.207 10.1523 17.4414 10.1914 17.7539C10.2695 18.0273 10.3281 18.4375 10.3672 18.9844C10.4453 19.5312 10.4453 20.1172 10.3672 20.7422C10.3281 21.3281 10.2891 21.875 10.25 22.3828C10.1719 23.6719 10.3281 24.3945 10.7188 24.5508C11.1484 24.7461 11.8516 24.2188 12.8281 22.9688C13.8828 21.6797 14.7617 20.1172 15.4648 18.2812C15.8164 17.3047 15.8359 16.582 15.5234 16.1133C14.8594 15.332 14.5859 14.6289 14.7031 14.0039C14.7422 13.9648 14.7422 13.8672 14.7031 13.7109C14.625 13.6328 14.5273 13.5352 14.4102 13.418C14.293 13.2617 14.1172 13.125 13.8828 13.0078C12.9844 12.6562 12.1641 12.6562 11.4219 13.0078C10.7188 13.3203 10.25 13.7891 10.0156 14.4141C9.82031 15.0391 9.72266 15.5273 9.72266 15.8789C9.76172 16.1914 9.80078 16.4258 9.83984 16.582C9.87891 16.6992 9.9375 16.8555 10.0156 17.0508ZM41.5391 12.5977C40.2109 12.9492 39.957 15.2148 40.7773 19.3945C41.0508 20.5273 41.1875 21.4844 41.1875 22.2656C41.2266 23.0078 41.1289 23.8281 40.8945 24.7266C40.6602 25.625 40.543 26.3477 40.543 26.8945C40.543 27.4414 40.4648 28.0859 40.3086 28.8281C40.3477 29.6484 40.3281 30.4883 40.25 31.3477C40.2109 32.168 40.1719 32.9688 40.1328 33.75C40.0156 35.6641 39.9961 36.7969 40.0742 37.1484C40.1523 37.5 40.2695 37.7344 40.4258 37.8516C40.6211 37.9297 40.8359 38.0078 41.0703 38.0859C41.6172 38.2812 41.9492 38.5352 42.0664 38.8477C42.1836 39.1602 42.2227 39.6094 42.1836 40.1953C42.1836 40.7422 42.125 41.3281 42.0078 41.9531C41.6562 43.4375 41.168 44.3945 40.543 44.8242C40.1914 45.0586 39.8203 45.1367 39.4297 45.0586C39.0781 44.9805 38.6875 44.9023 38.2578 44.8242C36.9297 44.5898 35.7969 44.707 34.8594 45.1758C32.5547 46.4258 30.7773 46.4258 29.5273 45.1758C29.0195 44.668 28.707 43.8867 28.5898 42.832C28.4336 40.918 28.5312 39.6875 28.8828 39.1406C29.2734 38.5938 29.5859 38.2617 29.8203 38.1445C30.0938 37.9883 30.3281 37.8516 30.5234 37.7344C30.9531 37.5391 31.168 37.207 31.168 36.7383C31.168 36.3867 31.207 36.0156 31.2852 35.625C31.4023 35.1953 31.5 34.7461 31.5781 34.2773C31.7734 33.1445 31.6758 32.207 31.2852 31.4648C30.8555 30.6055 30.6602 29.9023 30.6992 29.3555C30.7773 28.8086 30.8359 28.3203 30.875 27.8906L31.1094 26.4844C31.1875 25.3516 31.168 24.3945 31.0508 23.6133C30.9336 22.793 30.8359 21.9531 30.7578 21.0938C30.7188 20.1953 30.6992 19.3555 30.6992 18.5742C30.7383 17.793 30.7578 17.0508 30.7578 16.3477C30.7578 14.707 30.582 13.7305 30.2305 13.418C29.918 13.1055 29.625 12.9492 29.3516 12.9492C29.0781 12.9102 28.8047 12.8906 28.5312 12.8906C27.7891 12.9688 27.3203 12.8516 27.125 12.5391C26.6953 12.1094 26.4805 11.5625 26.4805 10.8984C26.4805 10.2344 26.5977 9.72656 26.832 9.375C27.1055 9.02344 27.2812 8.63281 27.3594 8.20312C27.4375 7.73438 27.4766 7.24609 27.4766 6.73828C27.5547 5.56641 27.5156 4.80469 27.3594 4.45312C27.2031 4.0625 27.0859 3.73047 27.0078 3.45703C26.9688 3.14453 26.9492 2.85156 26.9492 2.57812C26.9492 1.44531 27.75 0.859375 29.3516 0.820312C30.3281 0.78125 31.3242 0.800781 32.3398 0.878906C33.3555 0.917969 34.1562 0.878906 34.7422 0.761719C36.7734 0.371094 38.3945 0.214844 39.6055 0.292969C40.8555 0.371094 41.6562 0.46875 42.0078 0.585938C42.9844 0.976562 43.5117 2.05078 43.5898 3.80859C43.6289 4.62891 43.6484 5.48828 43.6484 6.38672C43.6484 7.28516 43.6875 8.20312 43.7656 9.14062C43.9219 11.0938 43.1797 12.2461 41.5391 12.5977ZM66.8516 19.9805C66.0703 21.582 65.5234 22.7539 65.2109 23.4961C64.9375 24.2383 64.8008 24.8047 64.8008 25.1953C64.8008 25.5469 64.918 26.0547 65.1523 26.7188C65.4258 27.3438 65.7578 28.0664 66.1484 28.8867C66.5391 29.668 66.9688 30.5469 67.4375 31.5234C67.9453 32.5 68.375 33.418 68.7266 34.2773C69.0781 35.0977 69.3125 35.7422 69.4297 36.2109C69.5859 36.6406 69.7031 37.0703 69.7812 37.5C69.8594 38.2422 69.8203 39.082 69.6641 40.0195C69.5469 40.957 69.5078 41.7188 69.5469 42.3047C69.625 42.8516 69.6445 43.3594 69.6055 43.8281C69.6055 44.2969 69.5273 44.6875 69.3711 45C69.2148 45.2734 68.7461 45.4297 67.9648 45.4688C67.2227 45.5469 66.5195 45.293 65.8555 44.707C65.2305 44.1211 64.6836 43.4375 64.2148 42.6562C63.7852 41.8359 63.4141 41.0352 63.1016 40.2539C62.8281 39.4727 62.457 38.8281 61.9883 38.3203C61.5195 37.8125 61.1094 37.0703 60.7578 36.0938C60.4453 35.1172 60.1719 34.1797 59.9375 33.2812C59.7031 32.3828 59.4492 31.6016 59.1758 30.9375C58.9023 30.2734 58.5117 29.9023 58.0039 29.8242C57.5352 29.7461 57.2227 29.8633 57.0664 30.1758C56.9492 30.4883 56.8906 30.918 56.8906 31.4648C56.9297 31.9727 56.9883 32.5586 57.0664 33.2227C57.1445 33.8477 57.1836 34.5508 57.1836 35.332C57.2227 36.0742 57.1836 36.7773 57.0664 37.4414C56.9883 38.1055 56.6758 38.75 56.1289 39.375C55.6211 39.9609 55.2695 40.5664 55.0742 41.1914C54.918 41.8164 54.7812 42.4219 54.6641 43.0078C54.5469 43.5938 54.3906 44.1016 54.1953 44.5312C54 44.9609 53.668 45.1758 53.1992 45.1758C52.2617 45.2148 51.4023 44.6875 50.6211 43.5938C49.8398 42.5 49.3906 41.0742 49.2734 39.3164C49.1562 38.3008 48.8633 37.6367 48.3945 37.3242C47.9648 37.0508 47.8281 35.9766 47.9844 34.1016C48.0234 33.5938 48.1016 33.1445 48.2188 32.7539C48.4531 31.543 48.4336 29.8242 48.1602 27.5977C47.9258 25.332 47.7695 24.0039 47.6914 23.6133C47.6133 23.1836 47.5156 22.6953 47.3984 22.1484C47.3203 21.5625 47.2422 20.957 47.1641 20.332C47.125 19.668 47.1055 19.0039 47.1055 18.3398C47.1055 17.6367 47.1836 16.9141 47.3398 16.1719C47.5352 15.3906 47.6328 14.7461 47.6328 14.2383C47.6719 13.7305 47.6719 13.2812 47.6328 12.8906C47.4375 11.6406 47.3594 10.6445 47.3984 9.90234C47.4766 9.12109 47.457 8.30078 47.3398 7.44141C47.2227 6.58203 47.1445 5.74219 47.1055 4.92188C47.0664 4.10156 47.125 3.35938 47.2812 2.69531C47.4766 1.99219 47.8281 1.48438 48.3359 1.17188C48.8828 0.859375 49.3516 0.742187 49.7422 0.820312C50.1328 0.859375 50.543 0.9375 50.9727 1.05469C52.2617 1.40625 53.1602 1.54297 53.668 1.46484C56.6367 0.722656 57.8281 2.61719 57.2422 7.14844C57.125 7.89062 57.0078 8.55469 56.8906 9.14062C56.6172 10.5469 56.5391 11.6016 56.6562 12.3047C56.7344 12.7734 56.7734 13.2812 56.7734 13.8281C56.8125 14.375 56.8516 14.8828 56.8906 15.3516C56.9688 16.4453 57.2227 16.9922 57.6523 16.9922C58.3164 16.9922 59.1562 15.8594 60.1719 13.5938C60.4062 13.0859 60.5625 12.6758 60.6406 12.3633C60.7578 12.0508 60.8945 11.6797 61.0508 11.25C61.2461 10.8203 61.4609 10.3906 61.6953 9.96094C62.3203 8.90625 62.9844 8.24219 63.6875 7.96875C63.1797 6.875 63.082 5.9375 63.3945 5.15625C63.7461 4.33594 64.0195 3.73047 64.2148 3.33984C64.4102 2.94922 64.625 2.63672 64.8594 2.40234C65.2891 1.97266 65.9141 1.875 66.7344 2.10938C67.5938 2.34375 68.3359 2.36328 68.9609 2.16797C69.5859 1.97266 70.1914 1.77734 70.7773 1.58203C71.4023 1.34766 72.0078 1.19141 72.5938 1.11328C73.1797 0.996094 73.668 1.11328 74.0586 1.46484C74.4883 1.81641 74.7422 2.22656 74.8203 2.69531C74.9375 3.125 74.9375 3.59375 74.8203 4.10156C74.5859 5.15625 74 6.19141 73.0625 7.20703C72.5156 9.35547 71.6172 11.0547 70.3672 12.3047C70.2109 14.1406 69.625 15.6836 68.6094 16.9336C68.2188 17.3633 67.6328 18.3789 66.8516 19.9805ZM78.2188 45.7031C77.8281 45.8203 77.3789 45.7812 76.8711 45.5859C76.4023 45.4297 76.0703 45.1172 75.875 44.6484C75.6797 44.1406 75.543 43.5742 75.4648 42.9492C75.4258 42.2852 75.4258 41.582 75.4648 40.8398C75.5039 40.0977 75.5234 39.375 75.5234 38.6719C75.5234 37.1094 75.2695 36.1133 74.7617 35.6836C73.707 34.9023 73.2773 32.9102 73.4727 29.707C73.668 27.8711 73.8828 26.4062 74.1172 25.3125C74.5078 23.5156 74.6836 21.9922 74.6445 20.7422C74.6445 19.4922 74.6836 18.5156 74.7617 17.8125C74.8789 17.1094 74.9961 16.5234 75.1133 16.0547C75.2695 15.5859 75.4453 15.0977 75.6406 14.5898C75.8359 14.082 76.0117 13.2422 76.168 12.0703C76.5586 9.14062 76.9102 7.32422 77.2227 6.62109C77.6523 5.64453 78.1602 4.64844 78.7461 3.63281C79.3711 2.57812 79.8789 1.875 80.2695 1.52344C81.168 0.859375 82.457 0.800781 84.1367 1.34766C85.3867 1.77734 86.5391 1.91406 87.5938 1.75781C88.6875 1.60156 89.5078 1.54297 90.0547 1.58203C90.6406 1.58203 91.2852 1.79687 91.9883 2.22656C92.6914 2.61719 93.2383 3.10547 93.6289 3.69141C94.0195 4.23828 94.293 4.84375 94.4492 5.50781C94.7227 6.64063 94.7422 8.08594 94.5078 9.84375C94.2734 11.5625 94.1758 12.9688 94.2148 14.0625C94.293 15.1172 94.5273 16.1328 94.918 17.1094C95.3477 18.0469 95.6211 18.8086 95.7383 19.3945C95.8945 19.9414 96.0117 20.5078 96.0898 21.0938C96.207 21.6406 96.2852 22.2461 96.3242 22.9102C96.4023 23.5352 96.5195 24.2578 96.6758 25.0781C96.8711 25.8984 96.9688 26.5625 96.9688 27.0703C97.0078 27.5391 97.0078 27.9297 96.9688 28.2422C96.9297 28.5547 96.8711 28.8477 96.793 29.1211C96.7539 29.3555 96.7734 29.7461 96.8516 30.293C96.9688 30.8008 96.9688 31.3672 96.8516 31.9922C96.7734 32.6172 96.6758 33.2227 96.5586 33.8086C96.1289 35.6055 95.9531 36.875 96.0312 37.6172C96.1875 38.9453 96.1875 39.9023 96.0312 40.4883C95.875 41.0352 95.7188 41.4844 95.5625 41.8359C95.4453 42.1875 95.2891 42.6758 95.0938 43.3008C94.9375 43.9258 94.5859 44.4922 94.0391 45C93.4922 45.5078 92.9648 45.6641 92.457 45.4688C91.9883 45.2734 91.6758 45 91.5195 44.6484C91.4023 44.2578 91.2852 43.8672 91.168 43.4766C91.0898 43.0859 90.9727 42.7344 90.8164 42.4219C90.6992 42.1094 90.4648 41.9336 90.1133 41.8945C89.4883 41.8164 89.1562 41.4648 89.1172 40.8398C89.0781 40.1758 89.0781 39.6094 89.1172 39.1406C89.1953 38.6328 89.1758 38.125 89.0586 37.6172C88.9414 37.1094 88.7461 36.6211 88.4727 36.1523C87.7695 34.9414 86.9492 34.2773 86.0117 34.1602C84.6055 33.9648 83.6289 34.6484 83.082 36.2109C82.9648 36.6016 82.8672 37.1289 82.7891 37.793C82.75 38.418 82.5938 38.9844 82.3203 39.4922C82.0859 40 81.8125 40.4297 81.5 40.7812C81.2266 41.1328 80.9531 41.4648 80.6797 41.7773C80.4453 42.0508 80.2891 42.4023 80.2109 42.832C79.8984 44.5117 79.2344 45.4688 78.2188 45.7031ZM83.4336 21.1523C82.6523 23.2617 82.5547 24.9414 83.1406 26.1914C83.5312 26.8945 84.0391 27.2656 84.6641 27.3047C85.7969 27.4219 86.4609 27.3438 86.6562 27.0703C86.8906 26.7578 87.1445 26.4453 87.418 26.1328C87.7305 25.7812 87.8477 25.2734 87.7695 24.6094C87.6914 23.9062 87.6328 23.3008 87.5938 22.793C87.5547 22.2461 87.3594 21.6406 87.0078 20.9766C86.6953 20.3125 86.4805 19.6094 86.3633 18.8672C86.2461 18.0859 86.168 17.3438 86.1289 16.6406C85.9727 15.0781 85.6211 14.2969 85.0742 14.2969C84.6836 14.2969 84.4297 14.5117 84.3125 14.9414C84.2344 15.332 84.1758 15.8594 84.1367 16.5234C84.0977 18.5547 83.8633 20.0977 83.4336 21.1523ZM100.074 14.3555L99.7812 9.49219C99.7812 8.67188 99.7617 7.79297 99.7227 6.85547C99.5664 4.51172 99.7227 3.20312 100.191 2.92969C100.621 2.69531 100.914 2.44141 101.07 2.16797C101.266 1.89453 101.461 1.75781 101.656 1.75781C101.891 1.75781 102.223 1.75781 102.652 1.75781C103.121 1.71875 103.609 1.71875 104.117 1.75781C105.328 1.83594 106.129 2.01172 106.52 2.28516C106.949 2.55859 107.418 2.73437 107.926 2.8125C108.434 2.89063 108.941 2.94922 109.449 2.98828C109.996 2.98828 110.504 2.98828 110.973 2.98828C111.441 2.94922 111.852 2.92969 112.203 2.92969C112.594 2.92969 112.848 2.96875 112.965 3.04688C113.434 3.24219 113.824 3.32031 114.137 3.28125C114.488 3.24219 114.82 3.39844 115.133 3.75C115.445 4.0625 115.66 4.31641 115.777 4.51172C115.895 4.66797 116.266 4.78516 116.891 4.86328C117.555 4.94141 118.102 5.01953 118.531 5.09766C118.961 5.13672 119.391 5.3125 119.82 5.625C120.25 5.9375 120.602 6.13281 120.875 6.21094C121.148 6.28906 121.441 6.54297 121.754 6.97266C122.105 7.40234 122.34 7.71484 122.457 7.91016C122.574 8.10547 122.652 8.4375 122.691 8.90625C122.73 10 123.004 10.8008 123.512 11.3086C124.02 11.8164 124.293 12.3047 124.332 12.7734C124.41 13.2422 124.469 13.7891 124.508 14.4141C124.547 15.0391 124.605 15.8203 124.684 16.7578C124.801 17.6562 124.605 18.6719 124.098 19.8047C123.629 20.8984 123.141 21.6602 122.633 22.0898C122.164 22.5195 121.773 23.0469 121.461 23.6719C121.148 24.2578 120.914 24.9414 120.758 25.7227C120.641 26.4648 120.23 27.2266 119.527 28.0078C119.098 28.5547 118.746 28.8867 118.473 29.0039C118.238 29.1211 118.004 29.2578 117.77 29.4141C117.535 29.5312 117.262 29.707 116.949 29.9414C116.637 30.1367 116.285 30.3125 115.895 30.4688C114.918 30.9375 114.078 31.0352 113.375 30.7617C112.945 30.957 112.516 31.0938 112.086 31.1719C111.695 31.2109 111.285 31.2891 110.855 31.4062C109.957 31.7188 109.449 32.2461 109.332 32.9883C109.254 33.7305 109.332 34.4922 109.566 35.2734C109.84 36.0547 109.996 36.7188 110.035 37.2656C110.23 39.0234 109.801 40.5469 108.746 41.8359C108.082 42.6172 107.652 43.457 107.457 44.3555C107.262 45.2148 106.91 45.8008 106.402 46.1133C105.543 46.8945 104.723 46.7188 103.941 45.5859C103.824 45.4688 103.57 45.3125 103.18 45.1172C102.633 44.8047 102.281 44.3164 102.125 43.6523C102.008 42.9492 101.949 42.2461 101.949 41.543C101.949 40.8398 101.891 40.1758 101.773 39.5508C101.656 38.9258 101.52 38.2617 101.363 37.5586C101.012 35.6445 100.836 34.3359 100.836 33.6328C100.836 32.9297 100.816 32.207 100.777 31.4648C100.777 30.7227 100.875 30.0586 101.07 29.4727C101.305 28.8867 101.402 28.4961 101.363 28.3008C101.324 28.1055 101.363 27.8906 101.48 27.6562C101.598 27.3828 101.734 27.0703 101.891 26.7188C102.047 26.3281 102.164 25.9375 102.242 25.5469C102.398 24.7266 102.164 24.0234 101.539 23.4375C100.836 22.7734 100.484 22.0703 100.484 21.3281V20.9766C100.602 19.6484 100.621 18.75 100.543 18.2812C100.23 16.9531 100.074 15.6445 100.074 14.3555ZM109.449 17.0508C109.527 17.207 109.586 17.4414 109.625 17.7539C109.703 18.0273 109.762 18.4375 109.801 18.9844C109.879 19.5312 109.879 20.1172 109.801 20.7422C109.762 21.3281 109.723 21.875 109.684 22.3828C109.605 23.6719 109.762 24.3945 110.152 24.5508C110.582 24.7461 111.285 24.2188 112.262 22.9688C113.316 21.6797 114.195 20.1172 114.898 18.2812C115.25 17.3047 115.27 16.582 114.957 16.1133C114.293 15.332 114.02 14.6289 114.137 14.0039C114.176 13.9648 114.176 13.8672 114.137 13.7109C114.059 13.6328 113.961 13.5352 113.844 13.418C113.727 13.2617 113.551 13.125 113.316 13.0078C112.418 12.6562 111.598 12.6562 110.855 13.0078C110.152 13.3203 109.684 13.7891 109.449 14.4141C109.254 15.0391 109.156 15.5273 109.156 15.8789C109.195 16.1914 109.234 16.4258 109.273 16.582C109.312 16.6992 109.371 16.8555 109.449 17.0508ZM140.973 12.5977C139.645 12.9492 139.391 15.2148 140.211 19.3945C140.484 20.5273 140.621 21.4844 140.621 22.2656C140.66 23.0078 140.562 23.8281 140.328 24.7266C140.094 25.625 139.977 26.3477 139.977 26.8945C139.977 27.4414 139.898 28.0859 139.742 28.8281C139.781 29.6484 139.762 30.4883 139.684 31.3477C139.645 32.168 139.605 32.9688 139.566 33.75C139.449 35.6641 139.43 36.7969 139.508 37.1484C139.586 37.5 139.703 37.7344 139.859 37.8516C140.055 37.9297 140.27 38.0078 140.504 38.0859C141.051 38.2812 141.383 38.5352 141.5 38.8477C141.617 39.1602 141.656 39.6094 141.617 40.1953C141.617 40.7422 141.559 41.3281 141.441 41.9531C141.09 43.4375 140.602 44.3945 139.977 44.8242C139.625 45.0586 139.254 45.1367 138.863 45.0586C138.512 44.9805 138.121 44.9023 137.691 44.8242C136.363 44.5898 135.23 44.707 134.293 45.1758C131.988 46.4258 130.211 46.4258 128.961 45.1758C128.453 44.668 128.141 43.8867 128.023 42.832C127.867 40.918 127.965 39.6875 128.316 39.1406C128.707 38.5938 129.02 38.2617 129.254 38.1445C129.527 37.9883 129.762 37.8516 129.957 37.7344C130.387 37.5391 130.602 37.207 130.602 36.7383C130.602 36.3867 130.641 36.0156 130.719 35.625C130.836 35.1953 130.934 34.7461 131.012 34.2773C131.207 33.1445 131.109 32.207 130.719 31.4648C130.289 30.6055 130.094 29.9023 130.133 29.3555C130.211 28.8086 130.27 28.3203 130.309 27.8906L130.543 26.4844C130.621 25.3516 130.602 24.3945 130.484 23.6133C130.367 22.793 130.27 21.9531 130.191 21.0938C130.152 20.1953 130.133 19.3555 130.133 18.5742C130.172 17.793 130.191 17.0508 130.191 16.3477C130.191 14.707 130.016 13.7305 129.664 13.418C129.352 13.1055 129.059 12.9492 128.785 12.9492C128.512 12.9102 128.238 12.8906 127.965 12.8906C127.223 12.9688 126.754 12.8516 126.559 12.5391C126.129 12.1094 125.914 11.5625 125.914 10.8984C125.914 10.2344 126.031 9.72656 126.266 9.375C126.539 9.02344 126.715 8.63281 126.793 8.20312C126.871 7.73438 126.91 7.24609 126.91 6.73828C126.988 5.56641 126.949 4.80469 126.793 4.45312C126.637 4.0625 126.52 3.73047 126.441 3.45703C126.402 3.14453 126.383 2.85156 126.383 2.57812C126.383 1.44531 127.184 0.859375 128.785 0.820312C129.762 0.78125 130.758 0.800781 131.773 0.878906C132.789 0.917969 133.59 0.878906 134.176 0.761719C136.207 0.371094 137.828 0.214844 139.039 0.292969C140.289 0.371094 141.09 0.46875 141.441 0.585938C142.418 0.976562 142.945 2.05078 143.023 3.80859C143.062 4.62891 143.082 5.48828 143.082 6.38672C143.082 7.28516 143.121 8.20312 143.199 9.14062C143.355 11.0938 142.613 12.2461 140.973 12.5977ZM173.434 4.27734C173.199 5.09766 172.867 6.01562 172.438 7.03125C172.008 8.00781 171.52 9.0625 170.973 10.1953C170.426 11.2891 169.996 12.4609 169.684 13.7109C169.371 14.9609 169.137 15.8398 168.98 16.3477C168.707 17.0508 168.199 17.9688 167.457 19.1016C166.715 20.1953 166.188 21.0156 165.875 21.5625C165.211 22.6953 164.801 23.7305 164.645 24.668C164.762 25.1367 164.957 25.7617 165.23 26.543C165.504 27.2852 165.777 28.125 166.051 29.0625C166.715 31.2891 167.047 33.1836 167.047 34.7461C167.867 36.3477 168.258 37.5391 168.219 38.3203C168.18 39.0625 168.102 39.707 167.984 40.2539C168.414 41.2695 168.688 42.1289 168.805 42.832C168.922 43.5352 168.668 44.2578 168.043 45C167.418 45.7031 166.852 45.957 166.344 45.7617C165.836 45.6055 165.523 45.1953 165.406 44.5312C165.25 43.8672 165.016 43.5352 164.703 43.5352C164.391 43.4961 164.078 43.4961 163.766 43.5352C163.492 43.5352 163.102 43.3984 162.594 43.125C162.125 42.8125 161.793 42.2656 161.598 41.4844C161.402 40.6641 161.188 39.8047 160.953 38.9062C160.758 38.0078 160.543 37.1094 160.309 36.2109C159.723 34.0625 159.234 32.9883 158.844 32.9883C158.609 32.9492 158.453 33.0664 158.375 33.3398C158.297 33.6133 158.219 33.9648 158.141 34.3945C157.828 36.2305 157.145 37.7734 156.09 39.0234C155.426 39.9219 155.016 40.5469 154.859 40.8984C154.742 41.2109 154.645 41.6602 154.566 42.2461C154.527 42.832 154.215 43.3984 153.629 43.9453C153.043 44.4531 152.457 44.7461 151.871 44.8242C151.285 44.8633 150.895 44.8828 150.699 44.8828C150.504 44.8828 150.348 44.8828 150.23 44.8828C150.035 44.9219 149.762 45.0391 149.41 45.2344C149.059 45.4297 148.707 45.5273 148.355 45.5273C148.004 45.5273 147.613 45.2734 147.184 44.7656C146.754 44.2578 146.48 43.9062 146.363 43.7109C146.285 43.4766 146.266 43.2617 146.305 43.0664C146.344 42.832 146.441 42.5781 146.598 42.3047C147.77 40.2344 148.629 37.9102 149.176 35.332C149.762 32.7148 150.328 30.8203 150.875 29.6484C151.422 28.4375 151.715 27.5 151.754 26.8359C151.832 26.1719 151.91 25.5273 151.988 24.9023C152.145 23.9258 151.988 22.8711 151.52 21.7383C151.09 20.5664 150.66 19.8438 150.23 19.5703C149.84 19.2969 149.586 19.0625 149.469 18.8672C149.352 18.6328 149.254 18.3789 149.176 18.1055C149.098 17.832 149.039 17.5391 149 17.2266C148.922 16.4844 148.59 15.3711 148.004 13.8867C147.34 12.207 146.578 10.5078 145.719 8.78906C144.664 6.67969 144.137 5.03906 144.137 3.86719C144.137 2.89063 144.566 2.34375 145.426 2.22656C145.855 2.14844 146.285 2.12891 146.715 2.16797C147.184 2.16797 147.633 2.1875 148.062 2.22656C148.531 2.22656 148.922 2.14844 149.234 1.99219C149.586 1.83594 149.957 1.67969 150.348 1.52344C150.777 1.36719 151.207 1.25 151.637 1.17188C152.613 0.976562 153.316 1.09375 153.746 1.52344C154.215 1.91406 154.566 2.5 154.801 3.28125C155.074 4.0625 155.309 4.94141 155.504 5.91797C155.738 6.85547 155.953 7.83203 156.148 8.84766C156.383 9.82422 156.637 10.7422 156.91 11.6016C157.535 13.4766 158.316 14.375 159.254 14.2969C159.723 14.2578 160.035 13.9453 160.191 13.3594C160.348 12.7344 160.465 11.9922 160.543 11.1328C160.777 8.78906 161.324 7.10938 162.184 6.09375C163.043 5.11719 163.531 4.31641 163.648 3.69141C163.766 3.06641 163.863 2.61719 163.941 2.34375C164.02 2.07031 164.215 1.81641 164.527 1.58203C164.879 1.30859 165.23 1.17188 165.582 1.17188C165.934 1.17188 166.285 1.23047 166.637 1.34766C166.988 1.46484 167.301 1.62109 167.574 1.81641C167.848 2.01172 168.082 2.16797 168.277 2.28516C171.285 1.58203 173.004 1.60156 173.434 2.34375C173.707 2.8125 173.707 3.45703 173.434 4.27734Z" fill="black"/>
</svg>
